<svg xmlns="http://www.w3.org/2000/svg" viewBox="0 0 48 48"><path fill="#e65100" d="M12 28H36V44H12zM12 4H36V9H12z"></path><path fill="#ffab91" d="M36 28L12 28 14 24 34 24z"></path><path fill="#616161" d="M16 9H32V24H16z"></path><path fill="#e3f2fd" d="M28,22h-8c-1.1,0-2-0.9-2-2v-7c0-1.1,0.9-2,2-2h8c1.1,0,2,0.9,2,2v7C30,21.1,29.1,22,28,22z"></path><path fill="#424242" d="M23 20H25V26H23z"></path><path fill="#424242" d="M24 25A2 1 0 1 0 24 27A2 1 0 1 0 24 25Z"></path><g><path fill="#bf360c" d="M27 31H33V41H27zM32 9H34V24H32zM14 9H16V24H14zM24 19A2 2 0 1 0 24 23 2 2 0 1 0 24 19z"></path></g><path fill="#424242" d="M30,39c-0.6,0-1-0.4-1-1v-4c0-0.6,0.4-1,1-1s1,0.4,1,1v4C31,38.6,30.6,39,30,39z"></path></svg>