<?xml version="1.0" encoding="utf-8"?>
<!-- Generator: Adobe Illustrator 22.1.0, SVG Export Plug-In . SVG Version: 6.00 Build 0)  -->
<svg version="1.1" id="Layer_1" xmlns="http://www.w3.org/2000/svg" xmlns:xlink="http://www.w3.org/1999/xlink" x="0px" y="0px"
	 viewBox="0 0 1584 432" style="enable-background:new 0 0 1584 432;" xml:space="preserve">
<style type="text/css">
	.st0{fill:none;stroke:#000000;stroke-width:3.6;stroke-linecap:round;stroke-linejoin:round;}
	.st1{fill:none;stroke:#666666;stroke-width:3.6;stroke-linecap:round;stroke-linejoin:round;}
	.st2{fill:none;}
	.st3{font-family:'CenturyGothic';}
	.st4{font-size:43.2px;}
	.st5{font-size:36px;}
	.st6{fill:#444444;}
	.st7{font-size:25.2px;}
	.st8{stroke:#FFFFFF;stroke-miterlimit:10;}
	.st9{fill:#666666;stroke:#666666;stroke-width:3.6;stroke-miterlimit:10;}
	.st10{fill:#666666;}
	.st11{fill:#666666;stroke:#666666;stroke-width:1.44;stroke-linecap:square;stroke-miterlimit:10;}
</style>
<g>
	<path class="st0" d="M0.1,0v432"/>
	<path class="st0" d="M792.2,0H0.1"/>
	<path class="st0" d="M0.1,0h198"/>
	<path class="st0" d="M293.6,216c0-27.8-22.6-50.4-50.4-50.4s-50.4,22.6-50.4,50.4s22.6,50.4,50.4,50.4S293.6,243.9,293.6,216z"/>
	<path class="st0" d="M198.1,0h144"/>
	<path class="st0" d="M147.6,162.3c0-22.1-17.9-40-40-40s-40,17.9-40,40s17.9,40,40,40S147.6,184.3,147.6,162.3z"/>
	<path class="st0" d="M147.6,270.5c0-22.1-17.9-40-40-40s-40,17.9-40,40s17.9,40,40,40S147.6,292.6,147.6,270.5z"/>
	<path class="st0" d="M512.8,138c0-22.1-17.9-40-40-40s-40,17.9-40,40s17.9,40,40,40S512.8,160.1,512.8,138z"/>
	<path class="st0" d="M591.2,212.6c0-22.1-17.9-40-40-40s-40,17.9-40,40s17.9,40,40,40S591.2,234.7,591.2,212.6z"/>
	<path class="st0" d="M512.6,291.1c0-22.1-17.9-40-40-40s-40,17.9-40,40s17.9,40,40,40C494.7,331,512.6,313.1,512.6,291.1z"/>
	<path class="st0" d="M438.2,216.5c0-22.1-17.9-40-40-40s-40,17.9-40,40s17.9,40,40,40C420.3,256.4,438.2,238.5,438.2,216.5z"/>
	<path class="st0" d="M0.1,0v432"/>
	<path class="st0" d="M0.1,432h792.1"/>
	<path class="st1" d="M827.8,310.8c0-22.1-17.9-40-40-40s-40,17.9-40,40s17.9,40,40,40S827.8,332.9,827.8,310.8z"/>
	<path class="st1" d="M827.8,202.5c0-22.1-17.9-40-40-40s-40,17.9-40,40s17.9,40,40,40S827.8,224.6,827.8,202.5z"/>
	<path class="st1" d="M827.8,94.3c0-22.1-17.9-40-40-40s-40,17.9-40,40s17.9,40,40,40S827.8,116.3,827.8,94.3z"/>
	<path class="st0" d="M1217.1,216c0-27.8-22.6-50.4-50.4-50.4c-27.8,0-50.4,22.6-50.4,50.4s22.6,50.4,50.4,50.4
		C1194.6,266.4,1217.1,243.9,1217.1,216z"/>
	<path class="st0" d="M1071,162.3c0-22.1-17.9-40-40-40s-40,17.9-40,40s17.9,40,40,40C1053.1,202.2,1071,184.3,1071,162.3z"/>
	<path class="st0" d="M1071,270.5c0-22.1-17.9-40-40-40s-40,17.9-40,40s17.9,40,40,40S1071,292.6,1071,270.5z"/>
	<path class="st0" d="M1436.2,138c0-22.1-17.9-40-40-40s-40,17.9-40,40s17.9,40,40,40C1418.3,178,1436.2,160.1,1436.2,138z"/>
	<path class="st0" d="M1514.7,212.6c0-22.1-17.9-40-40-40s-40,17.9-40,40s17.9,40,40,40C1496.8,252.6,1514.7,234.7,1514.7,212.6z"/>
	<path class="st0" d="M1436.1,291.1c0-22.1-17.9-40-40-40s-40,17.9-40,40s17.9,40,40,40C1418.2,331,1436.1,313.1,1436.1,291.1z"/>
	<path class="st0" d="M1584,432l-0.2-432"/>
	<path class="st0" d="M1583.8,0H791.9"/>
	<path class="st0" d="M791.9,432H1584"/>
	<path class="st0" d="M1360.4,216.5c0-22.1-17.9-40-40-40s-40,17.9-40,40s17.9,40,40,40C1342.5,256.4,1360.4,238.5,1360.4,216.5z"/>
	<path class="st0" d="M0.1,432V274.6"/>
	<path class="st0" d="M0.1,432h792.1"/>
</g>
<rect x="68.1" y="143.7" class="st2" width="79.4" height="58"/>
<text transform="matrix(1 0 0 1 89.0328 175.4459)" class="st3 st4">Q</text>
<rect x="67.9" y="252.6" class="st2" width="79.4" height="58"/>
<text transform="matrix(1 0 0 1 96.0257 284.3687)" class="st3 st4">E</text>
<rect x="203.5" y="179" class="st2" width="79.4" height="58"/>
<text transform="matrix(1 0 0 1 225.9623 205.4625)" class="st3 st5">W</text>
<rect x="991.4" y="143.8" class="st2" width="79.4" height="58"/>
<text transform="matrix(1 0 0 1 1016.9425 175.6113)" class="st3 st4">U</text>
<rect x="991.4" y="252.6" class="st2" width="79.4" height="58"/>
<text transform="matrix(1 0 0 1 1012.3126 284.3687)" class="st3 st4">O</text>
<rect x="1356.6" y="118.5" class="st2" width="79.4" height="58"/>
<text transform="matrix(1 0 0 1 1384.3101 150.3086)" class="st3 st4">8</text>
<rect x="1280.8" y="198.4" class="st2" width="79.4" height="58"/>
<text transform="matrix(1 0 0 1 1307.5049 230.2339)" class="st3 st4">4</text>
<rect x="1435" y="194.6" class="st2" width="79.4" height="58"/>
<text transform="matrix(1 0 0 1 1462.7754 226.3762)" class="st3 st4">6</text>
<rect x="1360.4" y="273" class="st2" width="79.4" height="58"/>
<text transform="matrix(1 0 0 1 1384.166 304.8413)" class="st3 st4">5</text>
<rect x="1280.8" y="363.2" class="st2" width="233.7" height="58"/>
<text transform="matrix(1 0 0 1 1295.7339 381.7685)" class="st6 st3 st7">Use number pad</text>
<rect x="203.5" y="227.4" class="st2" width="79.4" height="58"/>
<text transform="matrix(1 0 0 1 234.2768 253.9314)" class="st3 st5">S</text>
<rect x="177" y="202.1" class="st2" width="79.4" height="58"/>
<text transform="matrix(1 0 0 1 203.4262 228.598)" class="st3 st5">A</text>
<rect x="231.4" y="202.1" class="st2" width="79.4" height="58"/>
<text transform="matrix(1 0 0 1 257.6804 228.598)" class="st3 st5">D</text>
<rect x="1127.3" y="177.3" class="st2" width="79.4" height="58"/>
<text transform="matrix(1 0 0 1 1162.9851 203.8417)" class="st3 st5">I</text>
<rect x="1127.3" y="227.8" class="st2" width="79.4" height="58"/>
<text transform="matrix(1 0 0 1 1158.74 254.3107)" class="st3 st5">L</text>
<rect x="1098.8" y="202.5" class="st2" width="79.4" height="58"/>
<text transform="matrix(1 0 0 1 1129.8796 228.9773)" class="st3 st5">J</text>
<rect x="1153.2" y="202.5" class="st2" width="79.4" height="58"/>
<text transform="matrix(1 0 0 1 1182.2529 228.9773)" class="st3 st5">K</text>
<path class="st8" d="M422.5,213.4v6.1h-36.9l16.9,16.9l-4.4,4.4l-24.4-24.4l24.4-24.4l4.4,4.4l-16.9,16.9h36.9V213.4z"/>
<path class="st8" d="M469.6,266.7h6.1v36.9l16.9-16.9l4.4,4.4l-24.4,24.4l-24.4-24.4l4.4-4.4l16.9,16.9v-36.9H469.6z"/>
<path class="st8" d="M526.9,215.7v-6.1h36.9l-16.9-16.9l4.4-4.4l24.4,24.4L551.3,237l-4.4-4.4l16.9-16.9L526.9,215.7z"/>
<path class="st8" d="M475.9,162.4h-6.1v-36.9l-16.9,16.9l-4.4-4.4l24.4-24.4l24.4,24.4l-4.4,4.4L476,125.5v36.9H475.9z"/>
<path class="st9" d="M809.4,77.1l-4.4-4.4l-17.2,17.2l-17.2-17.2l-4.4,4.4l17.2,17.2l-17.2,17.2l4.4,4.4l17.2-17.2l17.2,17.2
	l4.4-4.4l-17.2-17.2L809.4,77.1z"/>
<path class="st10" d="M778.9,226.8l-17-17l7.8-7.8l9.3,9.3l27.1-27.1l7.8,7.8L778.9,226.8z"/>
<path class="st11" d="M762.3,294.8h50.9v5.7h-50.9V294.8 M762.3,309h50.9v5.7h-50.9V309 M762.3,323.1h50.9v5.7h-50.9V323.1z"/>
</svg>
