<?xml version="1.0" encoding="utf-8"?>
<!-- Generator: Adobe Illustrator 22.1.0, SVG Export Plug-In . SVG Version: 6.00 Build 0)  -->
<svg version="1.1" id="Layer_1" xmlns="http://www.w3.org/2000/svg" xmlns:xlink="http://www.w3.org/1999/xlink" x="0px" y="0px"
	 viewBox="0 0 1584 432" style="enable-background:new 0 0 1584 432;" xml:space="preserve">
<style type="text/css">
	.st0{fill:none;stroke:#000000;stroke-width:0.850394;stroke-linecap:round;stroke-linejoin:round;}
	.st1{fill:none;}
	.st2{font-family:'CenturyGothic';}
	.st3{font-size:43.2000008px;}
	.st4{font-size:36px;}
	.st5{fill:#444444;}
	.st6{font-size:25.2000008px;}
	.st7{stroke:#FFFFFF;stroke-miterlimit:10;}
</style>
<g>
	<path class="st0" d="M0.1039516,0v432.0283508"/>
	<path class="st0" d="M792.1571045,0H0.1039516"/>
	<path class="st0" d="M0.1039516,0H198.117157"/>
	<path class="st0" d="M286.4449463,216.0141754c0-23.846283-19.3574219-43.2016144-43.2036438-43.2016144
		s-43.2030334,19.3553314-43.2030334,43.2016144s19.3567963,43.2036896,43.2030334,43.2036896
		S286.4449463,239.8604584,286.4449463,216.0141754z"/>
	<path class="st0" d="M198.117157,0h144.0103455"/>
	<path class="st0" d="M147.5689545,162.2645569c0-22.0575562-17.9045868-39.9626846-39.9626999-39.9626846
		s-39.9627075,17.9051285-39.9627075,39.9626846c0,22.0595093,17.9046021,39.9626923,39.9627075,39.9626923
		S147.5689545,184.3240662,147.5689545,162.2645569z"/>
	<path class="st0" d="M147.5689545,270.539032c0-22.0575714-17.9045868-39.9626923-39.9626999-39.9626923
		s-39.9627075,17.9051208-39.9627075,39.9626923c0,22.0574341,17.9046021,39.962677,39.9627075,39.962677
		S147.5689545,292.5964661,147.5689545,270.539032z"/>
	<path class="st0" d="M512.7647095,138.0037079c0-22.0595169-17.9051819-39.9626846-39.962677-39.9626846
		c-22.0575256,0-39.9627075,17.9031677-39.9627075,39.9626846c0,22.0574341,17.9051819,39.962677,39.9627075,39.962677
		C494.8595276,177.9663849,512.7647095,160.061142,512.7647095,138.0037079z"/>
	<path class="st0" d="M591.2299194,212.6110535c0-22.0575562-17.9052124-39.9627991-39.9627075-39.9627991
		s-39.9627075,17.9052429-39.9627075,39.9627991c0,22.0595093,17.9052124,39.9626923,39.9627075,39.9626923
		S591.2299194,234.6705627,591.2299194,212.6110535z"/>
	<path class="st0" d="M516.6205444,291.0762024c0-22.0575562-17.9031677-39.9626923-39.962677-39.9626923
		c-22.0574951,0-39.962677,17.9051361-39.962677,39.9626923c0,22.0595093,17.9051819,39.962677,39.962677,39.962677
		C498.7173767,331.0388794,516.6205444,313.1357117,516.6205444,291.0762024z"/>
	<path class="st0" d="M438.155365,216.4688416c0-22.0595093-17.9031677-39.962677-39.962677-39.962677
		c-22.0575256,0-39.9627075,17.9031677-39.9627075,39.962677c0,22.0575562,17.9051819,39.962677,39.9627075,39.962677
		C420.2521973,256.4315186,438.155365,238.5263977,438.155365,216.4688416z"/>
	<path class="st0" d="M0.1039516,0v432.0283508"/>
	<path class="st0" d="M0.1039516,432.0283508h792.0531616"/>
	<path class="st0" d="M827.8233032,310.8141785c0-22.0575562-17.9052124-39.962677-39.9627075-39.962677
		s-39.9626465,17.9051208-39.9626465,39.962677c0,22.0595093,17.9051514,39.9627075,39.9626465,39.9627075
		S827.8233032,332.8736877,827.8233032,310.8141785z"/>
	<path class="st0" d="M827.8233032,202.541687c0-22.0595093-17.9052124-39.9626923-39.9627075-39.9626923
		s-39.9626465,17.903183-39.9626465,39.9626923c0,22.0575562,17.9051514,39.962677,39.9626465,39.962677
		S827.8233032,224.5992432,827.8233032,202.541687z"/>
	<path class="st0" d="M827.8233032,94.2672195c0-22.0574265-17.9052124-39.9626808-39.9627075-39.9626808
		s-39.9626465,17.9052544-39.9626465,39.9626808c0,22.0595169,17.9051514,39.9626846,39.9626465,39.9626846
		S827.8233032,116.3267365,827.8233032,94.2672195z"/>
	<path class="st0" d="M1209.9238281,216.0141754c0-23.846283-19.3574219-43.2016144-43.2037354-43.2016144
		c-23.8460693,0-43.2015381,19.3553314-43.2015381,43.2016144s19.3554688,43.2036896,43.2015381,43.2036896
		C1190.5664063,259.217865,1209.9238281,239.8604584,1209.9238281,216.0141754z"/>
	<path class="st0" d="M1071.0488281,162.2645569c0-22.0575562-17.9052734-39.9626846-39.9627686-39.9626846
		c-22.0594482,0-39.9627075,17.9051285-39.9627075,39.9626846c0,22.0595093,17.9032593,39.9626923,39.9627075,39.9626923
		C1053.1435547,202.2272491,1071.0488281,184.3240662,1071.0488281,162.2645569z"/>
	<path class="st0" d="M1071.0488281,270.539032c0-22.0575714-17.9052734-39.9626923-39.9627686-39.9626923
		c-22.0594482,0-39.9627075,17.9051208-39.9627075,39.9626923c0,22.0574341,17.9032593,39.962677,39.9627075,39.962677
		C1053.1435547,310.501709,1071.0488281,292.5964661,1071.0488281,270.539032z"/>
	<path class="st0" d="M1436.2435303,138.0037079c0-22.0595169-17.9031982-39.9626846-39.9626465-39.9626846
		c-22.0576172,0-39.9626465,17.9031677-39.9626465,39.9626846c0,22.0574341,17.9050293,39.962677,39.9626465,39.962677
		C1418.340332,177.9663849,1436.2435303,160.061142,1436.2435303,138.0037079z"/>
	<path class="st0" d="M1514.7087402,212.6110535c0-22.0575562-17.9051514-39.9627991-39.9627686-39.9627991
		c-22.057373,0-39.9626465,17.9052429-39.9626465,39.9627991c0,22.0595093,17.9052734,39.9626923,39.9626465,39.9626923
		C1496.8035889,252.5737457,1514.7087402,234.6705627,1514.7087402,212.6110535z"/>
	<path class="st0" d="M1440.0993652,291.0762024c0-22.0575562-17.9031982-39.9626923-39.9626465-39.9626923
		c-22.0576172,0-39.9626465,17.9051361-39.9626465,39.9626923c0,22.0595093,17.9050293,39.962677,39.9626465,39.962677
		C1422.196167,331.0388794,1440.0993652,313.1357117,1440.0993652,291.0762024z"/>
	<path class="st0" d="M1584,432.0283508L1583.791626,0"/>
	<path class="st0" d="M1583.791626,0H791.9468384"/>
	<path class="st0" d="M791.9468384,432.0283508H1584"/>
	<path class="st0" d="M1360.4383545,216.4688416c0-22.0595093-17.9031982-39.962677-39.9626465-39.962677
		c-22.0574951,0-39.9627686,17.9031677-39.9627686,39.962677c0,22.0575562,17.9052734,39.962677,39.9627686,39.962677
		C1342.5351563,256.4315186,1360.4383545,238.5263977,1360.4383545,216.4688416z"/>
	<path class="st0" d="M0.1039516,432.0283508V274.5891113"/>
	<path class="st0" d="M0.1039516,432.0283508h792.0531616"/>
</g>
<rect x="68.1275024" y="143.651001" class="st1" width="79.4414597" height="57.9924927"/>
<text transform="matrix(1 0 0 1 89.0327759 175.4459229)" class="st2 st3">Q</text>
<rect x="67.8855209" y="252.5737457" class="st1" width="79.4414597" height="57.9924927"/>
<text transform="matrix(1 0 0 1 96.0256577 284.3686523)" class="st2 st3">E</text>
<rect x="203.520874" y="178.9663849" class="st1" width="79.4414597" height="57.9924927"/>
<text transform="matrix(1 0 0 1 225.9623108 205.4624939)" class="st2 st4">W</text>
<rect x="991.3653564" y="143.8163147" class="st1" width="79.4414597" height="57.9924927"/>
<text transform="matrix(1 0 0 1 1016.9425049 175.6112518)" class="st2 st3">U</text>
<rect x="991.3653564" y="252.5737457" class="st1" width="79.4414597" height="57.9924927"/>
<text transform="matrix(1 0 0 1 1012.3126221 284.3686523)" class="st2 st3">O</text>
<rect x="1356.5601807" y="118.5136719" class="st1" width="79.4414597" height="57.9924927"/>
<text transform="matrix(1 0 0 1 1384.3100586 150.3085938)" class="st2 st3">8</text>
<rect x="1280.7548828" y="198.4390411" class="st1" width="79.4414597" height="57.9924927"/>
<text transform="matrix(1 0 0 1 1308.5048828 230.233963)" class="st2 st3">4</text>
<rect x="1435.0252686" y="194.5812531" class="st1" width="79.4414597" height="57.9924927"/>
<text transform="matrix(1 0 0 1 1462.7753906 226.3761749)" class="st2 st3">6</text>
<rect x="1360.4160156" y="273.0463867" class="st1" width="79.4414597" height="57.9924927"/>
<text transform="matrix(1 0 0 1 1388.1660156 304.8413086)" class="st2 st3">5</text>
<rect x="1280.7548828" y="363.2216187" class="st1" width="233.7118225" height="57.9924927"/>
<text transform="matrix(1 0 0 1 1295.7338867 381.7684937)" class="st5 st2 st6">Use number pad</text>
<rect x="203.520874" y="227.4352875" class="st1" width="79.4414597" height="57.9924927"/>
<text transform="matrix(1 0 0 1 234.2767639 253.9313965)" class="st2 st4">S</text>
<rect x="177.020874" y="202.1019592" class="st1" width="79.4414597" height="57.9924927"/>
<text transform="matrix(1 0 0 1 203.426178 228.598053)" class="st2 st4">A</text>
<rect x="231.3542023" y="202.1019592" class="st1" width="79.4414597" height="57.9924927"/>
<text transform="matrix(1 0 0 1 257.6804199 228.598053)" class="st2 st4">D</text>
<rect x="1127.3337402" y="177.3456421" class="st1" width="79.4414597" height="57.9924927"/>
<text transform="matrix(1 0 0 1 1162.9851074 203.8417358)" class="st2 st4">I</text>
<rect x="1127.3337402" y="227.8145447" class="st1" width="79.4414597" height="57.9924927"/>
<text transform="matrix(1 0 0 1 1158.7399902 254.3106384)" class="st2 st4">L</text>
<rect x="1098.8337402" y="202.4812012" class="st1" width="79.4414597" height="57.9924927"/>
<text transform="matrix(1 0 0 1 1129.8796387 228.9773102)" class="st2 st4">J</text>
<rect x="1153.1671143" y="202.4812012" class="st1" width="79.4414597" height="57.9924927"/>
<text transform="matrix(1 0 0 1 1182.2529297 228.9773102)" class="st2 st4">K</text>
<path class="st7" d="M422.5455933,213.3939819v6.1497345h-36.8983765l16.9117737,16.9117432l-4.366333,4.3663025
	l-24.3529053-24.3529205l24.3529053-24.3529053l4.366333,4.3663025l-16.9117737,16.9117432H422.5455933z"/>
<path class="st7" d="M473.5830078,266.7232971h6.1497192v36.8983459l16.9117432-16.9117432l4.366333,4.3663025
	l-24.3529358,24.3529053l-24.3529053-24.3529053l4.3663025-4.3663025l16.9117432,16.9117432V266.7232971z"/>
<path class="st7" d="M526.9143066,215.6858673v-6.1497192l36.8983765-0.0000153l-16.9117432-16.9117432l4.366272-4.3663025
	l24.3529053,24.3529053l-24.3529053,24.3529205l-4.366272-4.3663025l16.9117432-16.9117584L526.9143066,215.6858673z"/>
<path class="st7" d="M475.8768616,162.3566284h-6.1497192v-36.8983612l-16.9117432,16.9117432l-4.3663025-4.3663025
	l24.3529053-24.3529205l24.3529358,24.3529205l-4.3663025,4.3663025l-16.9117737-16.9117432V162.3566284z"/>
</svg>
