<svg id="Layer_1" data-name="Layer 1" xmlns="http://www.w3.org/2000/svg" viewBox="0 0 508.60001 121.60001"><defs><style>.cls-1{fill:#fff;}.cls-2{fill:red;}.cls-3,.cls-4{stroke:#000;stroke-miterlimit:10;}.cls-3{stroke-width:3.6px;}.cls-4{stroke-linecap:square;stroke-width:1.44px;}</style></defs><title>controls icons</title><path class="cls-1" d="M48.7998,73.3501A28.55005,28.55005,0,1,1,77.3501,44.7998,28.58254,28.58254,0,0,1,48.7998,73.3501Z" transform="translate(-20 -16)"/><path class="cls-2" d="M48.8,16.5A28.3,28.3,0,1,1,20.5,44.8,28.33206,28.33206,0,0,1,48.8,16.5m0-.5A28.8,28.8,0,1,0,77.6,44.8,28.8,28.8,0,0,0,48.8,16Z" transform="translate(-20 -16)"/><path d="M66.40653,38.08543V51.87578H48.01939V63L30,44.98061l18.01939-18.0194V38.08543Z" transform="translate(-20 -16)"/><path class="cls-1" d="M112.7998,73.3501a28.55005,28.55005,0,1,1,28.5503-28.5503A28.58254,28.58254,0,0,1,112.7998,73.3501Z" transform="translate(-20 -16)"/><path class="cls-2" d="M112.8,16.5A28.3,28.3,0,1,1,84.5,44.8a28.33206,28.33206,0,0,1,28.3-28.3m0-.5a28.8,28.8,0,1,0,28.8,28.8A28.8,28.8,0,0,0,112.8,16Z" transform="translate(-20 -16)"/><path d="M106.08543,27.19347h13.79035V45.58061H131L112.98061,63.6,94.96121,45.58061h11.12422Z" transform="translate(-20 -16)"/><path class="cls-1" d="M176.7998,73.3501a28.55005,28.55005,0,1,1,28.5503-28.5503A28.58254,28.58254,0,0,1,176.7998,73.3501Z" transform="translate(-20 -16)"/><path class="cls-2" d="M176.8,16v.5a28.3,28.3,0,1,1-28.3,28.3,28.33208,28.33208,0,0,1,28.3-28.3V16m0,0a28.8,28.8,0,1,0,28.8,28.8A28.8,28.8,0,0,0,176.8,16Z" transform="translate(-20 -16)"/><path d="M159.19347,51.51458V37.72422H177.5806V26.6L195.6,44.61939l-18.01939,18.0194V51.51457Z" transform="translate(-20 -16)"/><path class="cls-1" d="M240.7998,73.3501a28.55005,28.55005,0,1,1,28.5503-28.5503A28.58254,28.58254,0,0,1,240.7998,73.3501Z" transform="translate(-20 -16)"/><path class="cls-2" d="M240.8,16.5a28.3,28.3,0,1,1-28.3,28.3,28.33207,28.33207,0,0,1,28.3-28.3m0-.5a28.8,28.8,0,1,0,28.8,28.8A28.8,28.8,0,0,0,240.8,16Z" transform="translate(-20 -16)"/><path d="M247.51457,62.40653H233.72422V44.01939H222.6L240.61939,26l18.0194,18.01939H247.51457Z" transform="translate(-20 -16)"/><path class="cls-1" d="M304.7998,73.3501a28.55005,28.55005,0,1,1,28.5503-28.5503A28.58254,28.58254,0,0,1,304.7998,73.3501Z" transform="translate(-20 -16)"/><path class="cls-2" d="M304.8,16.5a28.3,28.3,0,1,1-28.3,28.3,28.33208,28.33208,0,0,1,28.3-28.3m0-.5a28.8,28.8,0,1,0,28.8,28.8A28.8,28.8,0,0,0,304.8,16Z" transform="translate(-20 -16)"/><path d="M310.25391,62.7998h-7.11182v-27.415l-8.49023,2.6333V32.23486l14.83935-5.31543h.7627Z" transform="translate(-20 -16)"/><path class="cls-1" d="M369.7998,73.3501a28.55005,28.55005,0,1,1,28.5503-28.5503A28.58254,28.58254,0,0,1,369.7998,73.3501Z" transform="translate(-20 -16)"/><path class="cls-2" d="M369.8,16.5a28.3,28.3,0,1,1-28.3,28.3,28.33207,28.33207,0,0,1,28.3-28.3m0-.5a28.8,28.8,0,1,0,28.8,28.8A28.8,28.8,0,0,0,369.8,16Z" transform="translate(-20 -16)"/><path d="M382.53857,61.7998h-24.56V56.92725l11.59082-12.354a28.56113,28.56113,0,0,0,3.53125-4.55273,7.31079,7.31079,0,0,0,1.14453-3.69141,5.47457,5.47457,0,0,0-1.20606-3.75293,4.35255,4.35255,0,0,0-3.44531-1.36572,4.69283,4.69283,0,0,0-3.80176,1.66113,6.57856,6.57856,0,0,0-1.39062,4.36817h-7.13672a11.74535,11.74535,0,0,1,1.5625-5.98,11.01415,11.01415,0,0,1,4.41748-4.24512,13.42686,13.42686,0,0,1,6.47217-1.53809q5.5371,0,8.60107,2.65772a9.4035,9.4035,0,0,1,3.064,7.50586,12.05059,12.05059,0,0,1-1.37793,5.41406,30.11924,30.11924,0,0,1-4.7251,6.42285l-8.146,8.58887h15.40576Z" transform="translate(-20 -16)"/><path class="cls-1" d="M48.7998,137.3501a28.55005,28.55005,0,1,1,28.5503-28.5503A28.58254,28.58254,0,0,1,48.7998,137.3501Z" transform="translate(-20 -16)"/><path class="cls-2" d="M48.8,80.5a28.3,28.3,0,1,1-28.3,28.3A28.33206,28.33206,0,0,1,48.8,80.5m0-.5a28.8,28.8,0,1,0,28.8,28.8A28.8,28.8,0,0,0,48.8,80Z" transform="translate(-20 -16)"/><path d="M66.40653,102.08543v13.79035H48.01939V127L30,108.98061l18.01939-18.0194v11.12422Z" transform="translate(-20 -16)"/><path class="cls-1" d="M112.7998,137.3501a28.55005,28.55005,0,1,1,28.5503-28.5503A28.58254,28.58254,0,0,1,112.7998,137.3501Z" transform="translate(-20 -16)"/><path class="cls-2" d="M112.8,80.5a28.3,28.3,0,1,1-28.3,28.3,28.33206,28.33206,0,0,1,28.3-28.3m0-.5a28.8,28.8,0,1,0,28.8,28.8A28.8,28.8,0,0,0,112.8,80Z" transform="translate(-20 -16)"/><path d="M106.08543,91.19347h13.79035v18.38714H131L112.98061,127.6l-18.0194-18.01939h11.12422Z" transform="translate(-20 -16)"/><path class="cls-1" d="M176.7998,137.3501a28.55005,28.55005,0,1,1,28.5503-28.5503A28.58254,28.58254,0,0,1,176.7998,137.3501Z" transform="translate(-20 -16)"/><path class="cls-2" d="M176.8,80.5a28.3,28.3,0,1,1-28.3,28.3,28.33206,28.33206,0,0,1,28.3-28.3h0m0-.5a28.8,28.8,0,1,0,28.8,28.8A28.8,28.8,0,0,0,176.8,80Z" transform="translate(-20 -16)"/><path d="M159.19347,115.51458V101.72422H177.5806V90.6L195.6,108.61939l-18.01939,18.0194V115.51457Z" transform="translate(-20 -16)"/><path class="cls-1" d="M240.7998,137.3501a28.55005,28.55005,0,1,1,28.5503-28.5503A28.58254,28.58254,0,0,1,240.7998,137.3501Z" transform="translate(-20 -16)"/><path class="cls-2" d="M240.8,80.5a28.3,28.3,0,1,1-28.3,28.3,28.33207,28.33207,0,0,1,28.3-28.3m0-.5a28.8,28.8,0,1,0,28.8,28.8A28.8,28.8,0,0,0,240.8,80Z" transform="translate(-20 -16)"/><path d="M247.51457,126.40653H233.72422V108.01939H222.6L240.61939,90l18.0194,18.01939H247.51457Z" transform="translate(-20 -16)"/><path class="cls-1" d="M304.7998,137.3501a28.55005,28.55005,0,1,1,28.5503-28.5503A28.58254,28.58254,0,0,1,304.7998,137.3501Z" transform="translate(-20 -16)"/><path class="cls-2" d="M304.8,80.5a28.3,28.3,0,1,1-28.3,28.3,28.33207,28.33207,0,0,1,28.3-28.3m0-.5a28.8,28.8,0,1,0,28.8,28.8A28.8,28.8,0,0,0,304.8,80Z" transform="translate(-20 -16)"/><path d="M310.25391,126.7998h-7.11182v-27.415l-8.49023,2.6333V96.23486l14.83935-5.31543h.7627Z" transform="translate(-20 -16)"/><path class="cls-1" d="M369.7998,137.3501a28.55005,28.55005,0,1,1,28.54981-28.5503A28.58254,28.58254,0,0,1,369.7998,137.3501Z" transform="translate(-20 -16)"/><path class="cls-2" d="M369.8,80.5a28.3,28.3,0,1,1-28.3,28.3,28.33207,28.33207,0,0,1,28.3-28.3m0-.5a28.8,28.8,0,1,0,28.8,28.8A28.8,28.8,0,0,0,369.8,80Z" transform="translate(-20 -16)"/><path d="M382.53857,125.7998h-24.56v-4.87255l11.59082-12.354a28.56113,28.56113,0,0,0,3.53125-4.55273,7.31079,7.31079,0,0,0,1.14453-3.69141,5.47457,5.47457,0,0,0-1.20606-3.75293,4.35255,4.35255,0,0,0-3.44531-1.36572,4.69283,4.69283,0,0,0-3.80176,1.66113,6.57856,6.57856,0,0,0-1.39062,4.36817h-7.13672a11.74535,11.74535,0,0,1,1.5625-5.98,11.01415,11.01415,0,0,1,4.41748-4.24512,13.42686,13.42686,0,0,1,6.47217-1.53809q5.5371,0,8.60107,2.65772a9.4035,9.4035,0,0,1,3.064,7.50586,12.05059,12.05059,0,0,1-1.37793,5.41406,30.11924,30.11924,0,0,1-4.7251,6.42285l-8.146,8.58887h15.40576Z" transform="translate(-20 -16)"/><path class="cls-1" d="M434.7998,73.3501a28.55005,28.55005,0,1,1,28.54981-28.5503A28.58254,28.58254,0,0,1,434.7998,73.3501Z" transform="translate(-20 -16)"/><path class="cls-2" d="M434.8,16.5a28.3,28.3,0,1,1-28.3,28.3,28.33207,28.33207,0,0,1,28.3-28.3m0-.5a28.8,28.8,0,1,0,28.8,28.8A28.8,28.8,0,0,0,434.8,16Z" transform="translate(-20 -16)"/><path class="cls-3" d="M449.808,32.80543,446.78657,29.784,434.808,41.76257,422.82943,29.784,419.808,32.80543,431.78657,44.784,419.808,56.76257l3.02143,3.02143L434.808,47.80543,446.78657,59.784l3.02143-3.02143L437.82943,44.784Z" transform="translate(-20 -16)"/><path class="cls-1" d="M434.7998,137.3501a28.55005,28.55005,0,1,1,28.54981-28.5503A28.58254,28.58254,0,0,1,434.7998,137.3501Z" transform="translate(-20 -16)"/><path class="cls-2" d="M434.8,80.5a28.3,28.3,0,1,1-28.3,28.3,28.33207,28.33207,0,0,1,28.3-28.3m0-.5a28.8,28.8,0,1,0,28.8,28.8A28.8,28.8,0,0,0,434.8,80Z" transform="translate(-20 -16)"/><path d="M427.85124,127.424l-13.29275-13.29276,6.05773-6.05773,7.235,7.25644L448.99978,94.16l6.05773,6.05773Z" transform="translate(-20 -16)"/><path class="cls-1" d="M499.7998,73.3501a28.55005,28.55005,0,1,1,28.54981-28.5503A28.58254,28.58254,0,0,1,499.7998,73.3501Z" transform="translate(-20 -16)"/><path class="cls-2" d="M499.8,16.5a28.3,28.3,0,1,1-28.3,28.3,28.33207,28.33207,0,0,1,28.3-28.3m0-.5a28.8,28.8,0,1,0,28.8,28.8A28.8,28.8,0,0,0,499.8,16Z" transform="translate(-20 -16)"/><path class="cls-4" d="M481.324,32.45067h37v4.11111h-37V32.45067m0,10.27777h37v4.11112h-37V42.72844m0,10.27778h37v4.11111h-37Z" transform="translate(-20 -16)"/></svg>