<?xml version="1.0" encoding="utf-8"?>
<!-- Generator: Adobe Illustrator 22.1.0, SVG Export Plug-In . SVG Version: 6.00 Build 0)  -->
<svg version="1.1" id="Layer_1" xmlns="http://www.w3.org/2000/svg" xmlns:xlink="http://www.w3.org/1999/xlink" x="0px" y="0px"
	 viewBox="0 0 1920 1080" style="enable-background:new 0 0 1920 1080;" xml:space="preserve">
<style type="text/css">
	.st0{fill:#E0A30D;}
	.st1{fill:#E65100;}
	.st2{fill:#FFAB91;}
	.st3{fill:#616161;}
	.st4{fill:#E3F2FD;}
	.st5{fill:#424242;}
	.st6{fill:#BF360C;}
</style>
<g>
	<path class="st0" d="M618.81543,185.858398v-47.518066h-21.239258v47.518066h-23.219238V70.48291h50.937988
		c8.639648,0,15.839355,7.739746,15.839355,16.379395v28.438965c0,8.459473-4.5,13.679199-10.799316,14.039551
		c8.279297,0.540039,11.339355,9.179688,11.339355,18.898926v37.618652H618.81543z M618.275391,91.362305h-21.239258v25.73877
		h21.239258V91.362305z"/>
	<path class="st0" d="M664.536133,185.858398v-97.73584h23.039063v97.73584H664.536133z M676.055664,76.603027
		c-6.299805,0-11.339355-5.040039-11.339355-11.339844s5.039551-11.519531,11.339355-11.519531
		c6.47998,0,11.519531,5.219727,11.519531,11.519531S682.535645,76.603027,676.055664,76.603027z"/>
	<path class="st0" d="M726.814941,185.858398c-8.639648,0-15.839355-6.659668-15.839355-15.299316v-69.297363
		c0-8.639648,4.319824-13.13916,11.339355-13.13916h32.21875V54.103516h23.219238v131.754883H726.814941z M755.07373,108.281738
		h-21.239258v56.337402h21.239258V108.281738z"/>
	<path class="st0" d="M854.791992,152.739746h-35.098633v12.05957h42.478027l0.180176,21.059082h-52.558105
		c-7.55957,0-13.319336-4.5-13.319336-13.139648V88.122559h53.817871c8.639648,0,15.839355,6.659668,15.839355,15.299316v36.178223
		C866.131348,148.239746,861.811523,152.739746,854.791992,152.739746z M843.272461,109.901367H819.15332v23.219238h24.119141
		V109.901367z"/>
	<path class="st0" d="M929.490723,139.780273v-29.878906h-21.239258v75.957031h-22.678711v-97.73584h50.937988
		c8.639648,0,15.838867,6.659668,15.838867,15.299316v36.358398H929.490723z"/>
	<path class="st0" d="M1058.908203,185.858398v-40.318359h-20.519531v40.318359h-23.21875V87.58252
		c0-8.459961,7.55957-17.099609,16.019531-17.099609h35.458984c8.639648,0,15.65918,8.459961,15.65918,17.099609v98.275879
		H1058.908203z M1059.62793,91.182129h-21.239258v32.038574h21.239258V91.182129z"/>
	<path class="st0" d="M1146.385742,139.780273v-29.878906h-21.239258v75.957031h-22.678711v-97.73584h50.9375
		c8.639648,0,15.839844,6.659668,15.839844,15.299316v36.358398H1146.385742z"/>
	<path class="st0" d="M1205.245117,185.858398c-8.639648,0-15.839844-6.659668-15.839844-15.299316v-69.297363
		c0-8.639648,4.320313-13.13916,11.339844-13.13916h41.938477c10.259766,0,12.599609,4.319824,12.599609,12.419434v21.958984
		h-19.259766v-14.219238h-24.478516v55.797363h43.738281v21.779297H1205.245117z"/>
	<path class="st0" d="M1291.103516,185.858398c-8.639648,0-15.838867-6.659668-15.838867-15.299316v-36.178711
		c0-8.639648,4.319336-13.13916,11.338867-13.13916h35.098633V109.72168h-42.477539l-0.180664-21.599121h52.557617
		c7.560547,0,13.320313,4.499512,13.320313,13.13916v84.59668H1291.103516z M1322.242188,141.400391h-24.119141v23.21875h24.119141
		V141.400391z"/>
	<path class="st0" d="M1380.202148,185.858398c-8.639648,0-15.839844-6.659668-15.839844-15.299316v-69.297363
		c0-8.639648,4.320313-13.13916,11.339844-13.13916h32.21875V54.103516h23.21875v131.754883H1380.202148z M1408.460938,108.281738
		h-21.239258v56.337402h21.239258V108.281738z"/>
	<path class="st0" d="M1508.178711,152.739746h-35.098633v12.05957h42.478516l0.179688,21.059082h-52.557617
		c-7.55957,0-13.319336-4.5-13.319336-13.139648V88.122559h53.817383c8.639648,0,15.839844,6.659668,15.839844,15.299316v36.178223
		C1519.518555,148.239746,1515.198242,152.739746,1508.178711,152.739746z M1496.65918,109.901367h-24.119141v23.219238h24.119141
		V109.901367z"/>
</g>
<g>
	<path class="st1" d="M408,139h93v62h-93V139z M408,46h93v19.375h-93V46z"/>
	<path class="st2" d="M501,139h-93l7.75-15.5h77.5L501,139z"/>
	<path class="st3" d="M423.5,65.375h62V123.5h-62V65.375z"/>
	<path class="st4" d="M470,115.75h-31c-4.262512,0-7.75-3.487495-7.75-7.75V80.875c0-4.262505,3.487488-7.75,7.75-7.75h31
		c4.262512,0,7.75,3.487495,7.75,7.75V108C477.75,112.262505,474.262512,115.75,470,115.75z"/>
	<path class="st5" d="M450.625,108h7.75v23.25h-7.75V108z"/>
	<path class="st5" d="M454.5,127.375c-4.280212,0-7.75,1.734894-7.75,3.875s3.469788,3.875,7.75,3.875s7.75-1.734894,7.75-3.875
		S458.780212,127.375,454.5,127.375z"/>
	<g>
		<path class="st6" d="M466.125,150.625h23.25v38.75h-23.25V150.625z M485.5,65.375h7.75V123.5h-7.75V65.375z M415.75,65.375h7.75
			V123.5h-7.75V65.375z M454.5,104.125c-4.280212,0-7.75,3.469788-7.75,7.75s3.469788,7.75,7.75,7.75s7.75-3.469788,7.75-7.75
			S458.780212,104.125,454.5,104.125z"/>
	</g>
	<path class="st5" d="M477.75,181.625c-2.325012,0-3.875-1.550003-3.875-3.875v-15.5c0-2.324997,1.549988-3.875,3.875-3.875
		s3.875,1.550003,3.875,3.875v15.5C481.625,180.074997,480.075012,181.625,477.75,181.625z"/>
</g>
</svg>
