<?xml version="1.0" encoding="utf-8"?>
<!-- Generator: Adobe Illustrator 22.1.0, SVG Export Plug-In . SVG Version: 6.00 Build 0)  -->
<svg version="1.1" id="Layer_1" xmlns="http://www.w3.org/2000/svg" xmlns:xlink="http://www.w3.org/1999/xlink" x="0px" y="0px"
	 viewBox="0 0 1584 432" style="enable-background:new 0 0 1584 432;" xml:space="preserve">
<style type="text/css">
	.st0{fill:none;stroke:#000000;stroke-width:3.5999999;stroke-linecap:round;stroke-linejoin:round;}
	.st1{fill:none;stroke:#666666;stroke-width:3.5999999;stroke-linecap:round;stroke-linejoin:round;}
	.st2{fill:none;}
	.st3{font-family:'CenturyGothic';}
	.st4{font-size:43.2000008px;}
	.st5{font-size:36px;}
	.st6{fill:#444444;}
	.st7{font-size:25.2000008px;}
	.st8{stroke:#FFFFFF;stroke-miterlimit:10;}
	.st9{fill:#666666;stroke:#666666;stroke-width:3.5999999;stroke-miterlimit:10;}
	.st10{stroke:#000000;stroke-width:1.4400001;stroke-linecap:square;stroke-miterlimit:10;}
</style>
<g>
	<path class="st0" d="M0.1,0v432"/>
	<path class="st0" d="M792.2000122,0H0.1"/>
	<path class="st0" d="M0.1,0h198"/>
	<path class="st0" d="M293.6000061,216c0-27.8000031-22.6000061-50.3999939-50.3999939-50.3999939
		S192.8000183,188.2000122,192.8000183,216s22.6000061,50.3999939,50.3999939,50.3999939S293.6000061,243.8999939,293.6000061,216z"
		/>
	<path class="st0" d="M198.1000061,0h144"/>
	<path class="st0" d="M147.6000061,162.3000031c0-22.1000061-17.8999939-40-40-40s-40,17.8999939-40,40s17.9000015,40,40,40
		S147.6000061,184.3000031,147.6000061,162.3000031z"/>
	<path class="st0" d="M147.6000061,270.5c0-22.1000061-17.8999939-40-40-40s-40,17.8999939-40,40s17.9000015,40,40,40
		S147.6000061,292.6000061,147.6000061,270.5z"/>
	<path class="st0" d="M512.7999878,138c0-22.0999985-17.8999939-40-40-40s-40,17.9000015-40,40s17.8999939,40,40,40
		S512.7999878,160.1000061,512.7999878,138z"/>
	<path class="st0" d="M591.2000122,212.6000061c0-22.1000061-17.9000244-40-40-40s-40,17.8999939-40,40s17.9000244,40,40,40
		S591.2000122,234.6999969,591.2000122,212.6000061z"/>
	<path class="st0" d="M512.5999756,291.1000061c0-22.1000061-17.8999939-40-40-40s-40,17.8999939-40,40s17.8999939,40,40,40
		C494.7000122,331,512.5999756,313.1000061,512.5999756,291.1000061z"/>
	<path class="st0" d="M438.2000122,216.5c0-22.1000061-17.8999939-40-40-40s-40,17.8999939-40,40s17.8999939,40,40,40
		C420.2999878,256.3999939,438.2000122,238.5,438.2000122,216.5z"/>
	<path class="st0" d="M0.1,0v432"/>
	<path class="st0" d="M0.1,432h792.0999756"/>
	<path class="st0" d="M827.7999878,310.7999878c0-22.1000061-17.9000244-40-40-40s-40,17.8999939-40,40s17.9000244,40,40,40
		S827.7999878,332.8999939,827.7999878,310.7999878z"/>
	<path class="st0" d="M827.7999878,202.5c0-22.1000061-17.9000244-40-40-40s-40,17.8999939-40,40s17.9000244,40,40,40
		S827.7999878,224.6000061,827.7999878,202.5z"/>
	<path class="st1" d="M827.7999878,94.3000031c0-22.0999985-17.9000244-40-40-40s-40,17.9000015-40,40s17.9000244,40,40,40
		S827.7999878,116.3000031,827.7999878,94.3000031z"/>
	<path class="st0" d="M1217.0999756,216c0-27.8000031-22.5999756-50.3999939-50.4000244-50.3999939
		S1116.2999268,188.2000122,1116.2999268,216s22.5999756,50.3999939,50.4000244,50.3999939
		C1194.5999756,266.3999939,1217.0999756,243.8999939,1217.0999756,216z"/>
	<path class="st0" d="M1071,162.3000031c0-22.1000061-17.9000244-40-40-40s-40,17.8999939-40,40s17.9000244,40,40,40
		C1053.0999756,202.1999969,1071,184.3000031,1071,162.3000031z"/>
	<path class="st0" d="M1071,270.5c0-22.1000061-17.9000244-40-40-40s-40,17.8999939-40,40s17.9000244,40,40,40
		S1071,292.6000061,1071,270.5z"/>
	<path class="st0" d="M1436.1999512,138c0-22.0999985-17.9000244-40-40-40s-40,17.9000015-40,40s17.9000244,40,40,40
		C1418.3000488,178,1436.1999512,160.1000061,1436.1999512,138z"/>
	<path class="st0" d="M1514.6999512,212.6000061c0-22.1000061-17.9000244-40-40-40s-40,17.8999939-40,40s17.9000244,40,40,40
		C1496.8000488,252.6000061,1514.6999512,234.6999969,1514.6999512,212.6000061z"/>
	<path class="st0" d="M1436.0999756,291.1000061c0-22.1000061-17.9000244-40-40-40s-40,17.8999939-40,40s17.9000244,40,40,40
		C1418.1999512,331,1436.0999756,313.1000061,1436.0999756,291.1000061z"/>
	<path class="st0" d="M1584,432l-0.1999512-432"/>
	<path class="st0" d="M1583.8000488,0H791.9000244"/>
	<path class="st0" d="M791.9000244,432H1584"/>
	<path class="st0" d="M1360.4000244,216.5c0-22.1000061-17.9000244-40-40-40s-40,17.8999939-40,40s17.9000244,40,40,40
		C1342.5,256.3999939,1360.4000244,238.5,1360.4000244,216.5z"/>
	<path class="st0" d="M0.1,432V274.6000061"/>
	<path class="st0" d="M0.1,432h792.0999756"/>
</g>
<rect x="68.0999985" y="143.6999969" class="st2" width="79.4000015" height="58"/>
<text transform="matrix(1 0 0 1 89.0328064 175.4459229)" class="st3 st4">Q</text>
<rect x="67.9000015" y="252.6000061" class="st2" width="79.4000015" height="58"/>
<text transform="matrix(1 0 0 1 96.0256958 284.3687134)" class="st3 st4">E</text>
<rect x="203.5" y="179" class="st2" width="79.3999939" height="58"/>
<text transform="matrix(1 0 0 1 225.9622955 205.4625244)" class="st3 st5">W</text>
<rect x="991.4000244" y="143.8000031" class="st2" width="79.4000244" height="58"/>
<text transform="matrix(1 0 0 1 1016.9425049 175.6113281)" class="st3 st4">U</text>
<rect x="991.4000244" y="252.6000061" class="st2" width="79.4000244" height="58"/>
<text transform="matrix(1 0 0 1 1012.3126221 284.3687134)" class="st3 st4">O</text>
<rect x="1356.5999756" y="118.5" class="st2" width="79.4000244" height="58"/>
<text transform="matrix(1 0 0 1 1384.3100586 150.3085938)" class="st3 st4">8</text>
<rect x="1280.8000488" y="198.3999939" class="st2" width="79.4000244" height="58"/>
<text transform="matrix(1 0 0 1 1307.5048828 230.2338867)" class="st3 st4">4</text>
<rect x="1435" y="194.6000061" class="st2" width="79.4000244" height="58"/>
<text transform="matrix(1 0 0 1 1462.7753906 226.3762207)" class="st3 st4">6</text>
<rect x="1360.4000244" y="273" class="st2" width="79.4000244" height="58"/>
<text transform="matrix(1 0 0 1 1384.1660156 304.8413086)" class="st3 st4">5</text>
<rect x="1280.8000488" y="363.2000122" class="st2" width="233.6999512" height="58"/>
<text transform="matrix(1 0 0 1 1295.7338867 381.7684937)" class="st6 st3 st7">Use number pad</text>
<rect x="203.5" y="227.3999939" class="st2" width="79.3999939" height="58"/>
<text transform="matrix(1 0 0 1 234.2767944 253.9313965)" class="st3 st5">S</text>
<rect x="177" y="202.1000061" class="st2" width="79.3999939" height="58"/>
<text transform="matrix(1 0 0 1 203.4261932 228.5980225)" class="st3 st5">A</text>
<rect x="231.3999939" y="202.1000061" class="st2" width="79.3999939" height="58"/>
<text transform="matrix(1 0 0 1 257.6803894 228.5980225)" class="st3 st5">D</text>
<rect x="1127.3000488" y="177.3000031" class="st2" width="79.4000244" height="58"/>
<text transform="matrix(1 0 0 1 1162.9851074 203.8416748)" class="st3 st5">I</text>
<rect x="1127.3000488" y="227.8000031" class="st2" width="79.4000244" height="57.9999847"/>
<text transform="matrix(1 0 0 1 1156.7399902 254.3106689)" class="st3 st5">K</text>
<rect x="1098.8000488" y="202.5" class="st2" width="79.4000244" height="58"/>
<text transform="matrix(1 0 0 1 1129.8796387 228.9772949)" class="st3 st5">J</text>
<rect x="1153.1999512" y="202.5" class="st2" width="79.4000244" height="58"/>
<text transform="matrix(1 0 0 1 1185.2529297 228.9772949)" class="st3 st5">L</text>
<path class="st8" d="M422.5,213.3999939V219.5h-36.8999939L402.5,236.3999939l-4.3999939,4.3999939l-24.3999939-24.3999939
	L398.1000061,192L402.5,196.3999939l-16.8999939,16.8999939H422.5V213.3999939z"/>
<path class="st8" d="M469.6000061,266.7000122h6.1000061v36.8999939l16.8999939-16.8999939L497,291.1000061L472.6000061,315.5
	l-24.3999939-24.3999939l4.3999939-4.3999939L469.5,303.6000061v-36.8999939H469.6000061z"/>
<path class="st8" d="M526.9000244,215.6999969v-6.1000061h36.9000244l-16.9000244-16.8999939l4.4000244-4.3999939
	l24.4000244,24.3999939L551.2999878,237l-4.4000244-4.3999939l16.9000244-16.8999939L526.9000244,215.6999969z"/>
<path class="st8" d="M475.8999939,162.3999939h-6.1000061v-36.9000015l-16.8999939,16.9000015L448.5,138l24.3999939-24.4000015
	L497.2999878,138l-4.3999939,4.3999939L476,125.5v36.8999939H475.8999939z"/>
<path class="st9" d="M809.4000244,77.0999985L805,72.6999969l-17.2000122,17.1999969l-17.2000122-17.1999969l-4.4000244,4.4000015
	l17.2000122,17.2000046L766.1999512,111.5l4.4000244,4.4000015l17.2000122-17.2000046L805,115.8999939l4.4000244-4.4000015
	l-17.2000122-17.2000046L809.4000244,77.0999985z"/>
<path d="M778.9000244,226.8000031l-17-17L769.7000122,202L779,211.3000031l27.0999756-27.1000061L813.8999634,192
	L778.9000244,226.8000031z"/>
<path class="st10" d="M762.2999878,294.7999878h50.9000244V300.5h-50.9000244V294.7999878 M762.2999878,309h50.9000244v5.7000122
	h-50.9000244V309 M762.2999878,323.1000061h50.9000244v5.7000122h-50.9000244V323.1000061z"/>
<text transform="matrix(1 0 0 1 840.4627075 319.5)" class="st3 st7">Escape</text>
<text transform="matrix(1 0 0 1 840.4622192 212.5999756)" class="st3 st7">Enter</text>
</svg>
